<?xml version="1.0" standalone="no"?>
<!DOCTYPE svg PUBLIC "-//W3C//DTD SVG 20010904//EN"
 "http://www.w3.org/TR/2001/REC-SVG-20010904/DTD/svg10.dtd">
<svg version="1.0" xmlns="http://www.w3.org/2000/svg"
 width="16.000000pt" height="16.000000pt" viewBox="0 0 16.000000 16.000000"
 preserveAspectRatio="xMidYMid meet">
<metadata>
Created by potrace 1.11, written by Peter Selinger 2001-2013
</metadata>
<g transform="translate(0.000000,16.000000) scale(0.002941,-0.002941)"
fill="#000000" stroke="none">
<path d="M3261 5332 c-17 -9 -70 -62 -118 -117 -49 -55 -218 -247 -378 -425
-273 -306 -653 -731 -741 -829 -214 -241 -197 -226 -265 -240 -231 -47 -437
-196 -621 -447 -273 -374 -398 -668 -437 -1026 -14 -124 -14 -355 -1 -452 24
-170 108 -345 234 -486 l28 -32 -27 -55 c-15 -30 -42 -69 -60 -88 l-33 -33 59
-11 c67 -13 120 -4 162 29 14 11 30 20 36 20 22 0 197 -102 224 -131 41 -44
33 -60 -33 -65 -207 -15 -313 -123 -218 -221 70 -73 245 -101 334 -55 53 27
60 46 33 88 l-21 34 24 0 c44 0 130 31 154 55 13 13 24 36 24 50 0 29 -1 29
47 11 136 -49 533 -66 638 -26 25 10 34 3 183 -139 491 -466 763 -661 921
-661 58 0 97 13 129 42 33 31 28 61 -17 101 -40 36 -70 48 -172 67 -56 11 -60
14 -335 272 -356 333 -477 449 -472 452 1 1 21 13 43 26 142 82 264 276 330
523 55 204 18 421 -97 573 l-41 55 56 82 c31 45 71 96 89 113 18 17 128 91
243 164 236 150 337 217 748 495 158 108 293 192 299 189 6 -4 8 -3 5 3 -4 6
12 23 36 38 206 136 633 477 717 573 68 76 87 132 46 132 -7 0 -16 7 -20 15
-3 8 -12 15 -19 15 -8 0 -21 10 -29 22 l-15 22 -35 -22 c-19 -12 -95 -74 -169
-137 -74 -64 -213 -169 -309 -234 -329 -222 -628 -426 -723 -494 -53 -37 -98
-67 -101 -67 -3 0 -116 -74 -251 -165 -135 -91 -251 -168 -257 -170 -10 -4
-13 23 -15 112 -2 177 -51 334 -145 470 -78 115 -266 262 -430 337 -96 45
-238 86 -294 86 -24 0 -44 3 -44 6 0 3 80 92 179 197 602 647 1066 1190 1087
1273 10 38 -2 57 -31 50 -19 -5 -25 -2 -25 10 0 12 -7 15 -25 12 -16 -3 -25
-1 -25 7 0 22 -26 24 -59 7z"/>
<path d="M5366 2871 c-4 -5 3 -7 14 -4 23 6 26 13 6 13 -8 0 -17 -4 -20 -9z"/>
<path d="M5365 2490 c-3 -6 1 -7 9 -4 18 7 21 14 7 14 -6 0 -13 -4 -16 -10z"/>
<path d="M5368 538 c5 -5 16 -8 23 -6 8 3 3 7 -10 11 -17 4 -21 3 -13 -5z"/>
<path d="M5367 159 c7 -7 15 -10 18 -7 3 3 -2 9 -12 12 -14 6 -15 5 -6 -5z"/>
</g>
</svg>
